<svg id="Layer_1" data-name="Layer 1" xmlns="http://www.w3.org/2000/svg" viewBox="0 0 554.76 542.97"><defs><style>.cls-1{fill:#4cbc1d;}.cls-2{fill:#fff;}.cls-3{fill:none;stroke:#4cbc1d;stroke-miterlimit:10;stroke-width:2px;}.cls-4{fill:#4f4f4f;}</style></defs><circle class="cls-1" cx="273.48" cy="271.04" r="264.44"/><path class="cls-2" d="M203.72,190.38a6.62,6.62,0,0,1-4.46-1.27,6.68,6.68,0,0,1-1.87-4.21c-.09-1.64-.15-3.4-.17-5.27s0-3.76,0-5.66v-5.51c0-1.78,0-3.45,0-5s0-2.86,0-3.94a13.93,13.93,0,0,0-.67-5.16,4,4,0,0,0-2-2.14,22.18,22.18,0,0,0-5.79-1.2,132,132,0,0,0-13.6-.49q-5.26,0-8.54.07c-2.17,0-3.91.13-5.19.25a22.07,22.07,0,0,0-3,.42,9.87,9.87,0,0,0-2,.66,5.89,5.89,0,0,0-1.89,1.38,5.13,5.13,0,0,0-1.13,3.12A23.64,23.64,0,0,0,153,159c-.07,1-.16,2.08-.25,3.34s-.16,2.69-.21,4.25-.11,3.33-.18,5.27-.13,4.11-.17,6.5a25.36,25.36,0,0,1-1.34,7.17,6,6,0,0,1-2.67,3.33,9.15,9.15,0,0,1-4.28.88,6.24,6.24,0,0,1-5.8-3.47,28.86,28.86,0,0,1-2.91-8.75c-.24-1.83-.46-4.05-.67-6.68s-.37-5.37-.46-8.25-.19-5.7-.28-8.47-.14-5.2-.14-7.3c0-3.24.05-6.28.14-9.14s.22-5.55.39-8.08.36-4.9.59-7.13.52-4.25.85-6.08a39,39,0,0,1,2.17-8.08,11.92,11.92,0,0,1,3.34-4.84,7.43,7.43,0,0,1,4.82-1.62,5.47,5.47,0,0,1,4.81,2.28c1.05,1.53,1.77,4.21,2.14,8.05.09,1.36.19,2.73.28,4.11s.19,2.73.28,4,.19,2.52.28,3.62.19,2.07.28,2.91.17,1.53.22,2a17.5,17.5,0,0,0,1.08,4,3.39,3.39,0,0,0,2.57,1.93,44.4,44.4,0,0,0,7.24.6c3.18.07,6.58.1,10.18.1,2.95,0,5.72,0,8.29.11s4.83.08,6.75,0a17.06,17.06,0,0,0,4.07-.42,4,4,0,0,0,2-1.79,11.06,11.06,0,0,0,1.05-4.46c.1-1,.19-2.15.29-3.51s.19-2.91.31-4.64.25-3.55.39-5.44.33-3.83.56-5.8q.63-5.27,2.32-7.41a5.15,5.15,0,0,1,4.21-2.14,6.24,6.24,0,0,1,5.45,2.63c1.24,1.76,2.19,4.69,2.84,8.82a32,32,0,0,1,.81,5q.31,3.16.57,7.28c.16,2.74.28,5.66.35,8.78s.1,6.26.1,9.45q0,3.93-.14,8.18c-.09,2.84-.22,5.67-.39,8.51s-.36,5.57-.59,8.21-.48,5.1-.74,7.35-.53,4.21-.81,5.9c-.75,3.61-1.91,6.2-3.48,7.8A7.9,7.9,0,0,1,203.72,190.38Z"/><path class="cls-2" d="M265.89,192.55a66.48,66.48,0,0,1-15.7-1.82,41.7,41.7,0,0,1-13.49-5.8,28.42,28.42,0,0,1-9.38-10.43q-3.44-6.47-3.44-15.74A44,44,0,0,1,227.22,141a35.07,35.07,0,0,1,9.24-12.72,39.84,39.84,0,0,1,13.66-7.66A53,53,0,0,1,266.74,118a60.52,60.52,0,0,1,15.66,2,42.35,42.35,0,0,1,13.78,6.39,31.7,31.7,0,0,1,9.73,11.28q3.61,6.92,3.62,16.68a35.07,35.07,0,0,1-3,14.2,37.55,37.55,0,0,1-8.64,12.19,42.36,42.36,0,0,1-13.7,8.57A49.33,49.33,0,0,1,265.89,192.55ZM265.26,177a29.85,29.85,0,0,0,12.16-2.22,22.5,22.5,0,0,0,8.11-5.83,23.29,23.29,0,0,0,4.57-7.9,26.57,26.57,0,0,0,1.44-8.5,20.32,20.32,0,0,0-2.28-10,18.88,18.88,0,0,0-6.05-6.64,26.13,26.13,0,0,0-8.39-3.69,38.66,38.66,0,0,0-9.49-1.16,27.21,27.21,0,0,0-11.94,2.7,22,22,0,0,0-9.1,8.15q-3.48,5.44-3.48,13.74a22.8,22.8,0,0,0,2.78,11.56,17.62,17.62,0,0,0,8.25,7.3A32.22,32.22,0,0,0,265.26,177Z"/><path class="cls-2" d="M339.31,189.11a14.32,14.32,0,0,1-8-2.18,18.13,18.13,0,0,1-5.73-6.32,30.84,30.84,0,0,1-2.17-6.36c-.71-2.79-1.37-5.95-2-9.48s-1.17-7.17-1.61-10.89-.79-7.26-1-10.61-.35-6.22-.35-8.61a20.64,20.64,0,0,1,.94-6.5,10.11,10.11,0,0,1,2.85-4.49A7.14,7.14,0,0,1,327,122a6,6,0,0,1,5,2.11,15,15,0,0,1,2.43,6.54c.18,1.68.39,3.7.63,6s.5,4.82.81,7.45.63,5.23,1,7.83.7,5,1.05,7.1.72,3.87,1.09,5.23a11.94,11.94,0,0,0,1.69,3.94,3.05,3.05,0,0,0,2.53,1.47,2.83,2.83,0,0,0,2.39-1.62,16.43,16.43,0,0,0,1.68-4.28c.57-2.39,1.15-5.12,1.76-8.19s1.25-6.23,1.93-9.48,1.38-6.43,2.11-9.52,1.51-5.88,2.35-8.36a14.62,14.62,0,0,1,4.29-5.69c1.83-1.45,4.35-2.18,7.59-2.18q4.42,0,6.81,2a12.27,12.27,0,0,1,3.59,4.91q.76,2.25,1.75,5.84c.66,2.38,1.31,4.95,2,7.69s1.3,5.48,1.93,8.22,1.19,5.27,1.69,7.59.9,4.2,1.23,5.65a20.35,20.35,0,0,0,1.68,5.1q1,1.86,2.25,1.86a2.92,2.92,0,0,0,2.57-1.48,21.4,21.4,0,0,0,1.93-4.28,51.63,51.63,0,0,0,1.58-6.4c.54-2.76,1.06-5.8,1.58-9.13s1-6.6,1.51-9.84.92-6.06,1.3-8.5a13.32,13.32,0,0,1,2.77-5.86,6.35,6.35,0,0,1,4.82-1.8,9.49,9.49,0,0,1,3.62.71,8.55,8.55,0,0,1,3.09,2.24,11,11,0,0,1,2.14,4.15,22.6,22.6,0,0,1,.77,6.32q0,2.88-.38,6.78c-.26,2.6-.63,5.38-1.09,8.33s-1,5.9-1.58,8.85-1.23,5.79-1.94,8.5-1.41,5.16-2.14,7.31a27.44,27.44,0,0,1-2.21,5.13,20.81,20.81,0,0,1-6.36,6.29,16,16,0,0,1-8.61,2.28,12.32,12.32,0,0,1-8.36-2.92,17,17,0,0,1-4.85-6.64q-1.05-3.57-2.14-8.22T376,161.53q-1.2-4.87-2.29-9.41t-1.93-7.83a22.15,22.15,0,0,0-1.54-4.61,3,3,0,0,0-2.88-1.86,3.79,3.79,0,0,0-3.24,1.93,14.43,14.43,0,0,0-1.89,4.68c-.42,1.64-.92,3.71-1.48,6.21s-1.12,5.18-1.68,8-1.15,5.66-1.76,8.47-1.19,5.38-1.76,7.69a49.21,49.21,0,0,1-1.61,5.52,14.81,14.81,0,0,1-5.52,6.18A16,16,0,0,1,339.31,189.11Z"/><ellipse class="cls-2" cx="268.06" cy="154.83" rx="29.69" ry="28.14"/><path class="cls-3" d="M265.26,177a29.85,29.85,0,0,0,12.16-2.22,22.5,22.5,0,0,0,8.11-5.83,23.29,23.29,0,0,0,4.57-7.9,26.57,26.57,0,0,0,1.44-8.5,20.32,20.32,0,0,0-2.28-10,18.88,18.88,0,0,0-6.05-6.64,26.13,26.13,0,0,0-8.39-3.69,38.66,38.66,0,0,0-9.49-1.16,27.21,27.21,0,0,0-11.94,2.7,22,22,0,0,0-9.1,8.15q-3.48,5.44-3.48,13.74a22.8,22.8,0,0,0,2.78,11.56,17.62,17.62,0,0,0,8.25,7.3A32.22,32.22,0,0,0,265.26,177Z"/><path class="cls-4" d="M252.05,184.22c-.07,1.79-.14,3.58-.22,5.37,0,.63-.08,1.26-.13,1.88a44.15,44.15,0,0,0,6.21,1.45c-.05-1.41-.1-2.82-.16-4.23-.09-2.24-.27-4.47-.29-6.7-.06-4.75,0-9.51-.06-14.26q-.06-17.68-.13-35.36a4.48,4.48,0,0,0-.17-1,.66.66,0,0,0-.94-.22,4.72,4.72,0,0,0-1.57,1.38c-.42.65-.92,1.25-1.31,1.92a15.27,15.27,0,0,0-.78,1.75c-.18.39-.36.78-.53,1.17s-.42,1-.62,1.48c-.25.66-.5,1.32-.73,2s-.39,1.22-.59,1.82c-.14.42-.3.84-.44,1.26-.07.23-.14.46-.2.69-.22.77-.45,1.55-.65,2.33-.14.58-.23,1.18-.36,1.76-.08.36-.2.72-.29,1.08s-.11.55-.16.83l-.21,1.2c-.1.49-.2,1-.29,1.48l0,.16c-.06.7-.14,1.4-.2,2.11s-.14,1.53-.16,2.3c-.06,2.47-.12,4.94-.15,7.41s0,5.14,0,7.71a7.51,7.51,0,0,0,.22,1.89,2.65,2.65,0,0,0,1,1.42l2.09,1.67a4.78,4.78,0,0,1,1.34,1.83,8.15,8.15,0,0,1,.54,2.38,5.06,5.06,0,0,1,0,1.9A.57.57,0,0,0,252.05,184.22Z"/><path class="cls-4" d="M272.44,138.74c-.56,0-1.13,0-1.69,0-.24,0-.33.1-.32.31v23.08c0,.55,0,.59-.58.59h-1.2c-.44,0-.47,0-.47-.48v-22.9c0-.59,0-.59-.59-.59h-1.13c-.43,0-.52.07-.57.52s-.13.91-.18,1.37c-.07.66-.12,1.32-.19,2-.15,1.26-.31,2.51-.47,3.77,0,.05,0,.11,0,.16-.07.8-.12,1.59-.19,2.38l-.33,3.46c-.06.64-.12,1.29-.17,1.94s-.12,1.47-.16,2.21c-.07,1.15-.12,2.29-.18,3.44-.05.87-.12,1.74-.11,2.61,0,1,.09,2,.17,3a4.82,4.82,0,0,0,1.52,2.91,11,11,0,0,0,3.67,2.66c.61.25,1.24.44,1.86.66.2.07.34.17.33.42-.08,1.22-.14,2.45-.21,3.68,0,.55-.08,1.09-.11,1.64-.08,1.56-.14,3.12-.22,4.68,0,.89-.08,1.78-.13,2.68-.08,1.45-.18,2.91-.26,4.37l0,.33c-.05,1.2-.09,2.39-.14,3.59a45.82,45.82,0,0,0,6.57-1.18c-.08-1.75-.15-3.5-.23-5.25-.1-2.09-.21-4.17-.32-6.26-.05-1.08-.09-2.17-.15-3.25s-.12-2.14-.19-3.21c0-.6-.07-1.21-.12-1.81a.36.36,0,0,1,.29-.41c.49-.17,1-.29,1.47-.5a16.71,16.71,0,0,0,2-1,10.93,10.93,0,0,0,2.59-2.35,5,5,0,0,0,.9-1.52,3.68,3.68,0,0,0,.17-1c.07-1.42.15-2.85.16-4.27,0-1.17-.11-2.34-.17-3.51-.05-.82-.09-1.63-.15-2.45-.1-1.32-.21-2.64-.33-3.95-.1-1.05-.22-2.1-.33-3.15l-.33-3.06c-.11-1-.22-2-.34-3s-.21-1.75-.33-2.62a2.86,2.86,0,0,0-.13-.58.31.31,0,0,0-.2-.13h-1.43c0,.18,0,.34,0,.5v23c0,.47,0,.49-.48.5h-1.36c-.26,0-.37-.11-.36-.36V139.49c0-.12,0-.24,0-.36s-.12-.4-.41-.39c-.53,0-1.06,0-1.59,0s-.55,0-.55.54v15.92c0,2.36,0,4.72,0,7.08,0,.34-.09.45-.43.43s-.84,0-1.26,0-.47,0-.47-.47V139.38c0-.1,0-.2,0-.3C272.81,138.82,272.71,138.73,272.44,138.74Z"/><path class="cls-2" d="M181.34,307.93q-15.43,0-26.79-4.68a36.34,36.34,0,0,1-17.46-14.48Q131,279,131,263.83q0-12.58,4.17-22a44.15,44.15,0,0,1,11.54-15.75,49.14,49.14,0,0,1,17-9.51,65.43,65.43,0,0,1,20.59-3.18,61.66,61.66,0,0,1,14.1,1.57,38.76,38.76,0,0,1,11.85,4.82,24.16,24.16,0,0,1,8.14,8.32,23.62,23.62,0,0,1,2.93,12c0,5-1,9-3.12,12.09a21.09,21.09,0,0,1-8.54,7.25,47.33,47.33,0,0,1-12.27,3.86q-6.84,1.24-14.29,1.89-3.77.65-8.91,1.05t-10,.65c-3.22.15-5.71.23-7.49.23a6.86,6.86,0,0,0-3.77.73,3.11,3.11,0,0,0-1,2.67,14.19,14.19,0,0,0,1.28,5.37,24.83,24.83,0,0,0,3.67,6,21.22,21.22,0,0,0,10.25,7.21,49.4,49.4,0,0,0,14.38,1.79,47.84,47.84,0,0,0,13.55-1.79q6.12-1.78,11.07-3.58a26.46,26.46,0,0,1,8.92-1.79,10.34,10.34,0,0,1,5.65,1.33c1.37.89,2.07,2.62,2.07,5.19a9.57,9.57,0,0,1-3.17,6.71,27.74,27.74,0,0,1-8.78,5.65,62.28,62.28,0,0,1-13.14,3.86A88,88,0,0,1,181.34,307.93Zm-7.26-51.09A64.08,64.08,0,0,0,188,255.42a23.37,23.37,0,0,0,10.43-4.87q4-3.44,4-9.51,0-7.17-5.24-10.79t-14.7-3.63a31.19,31.19,0,0,0-10.94,2,31.58,31.58,0,0,0-9.46,5.47,28.68,28.68,0,0,0-6.61,7.9,19,19,0,0,0-2.49,9.47,3.94,3.94,0,0,0,2.07,3.72,16.71,16.71,0,0,0,6.71,1.42Q166.36,256.84,174.08,256.84Z"/><path class="cls-2" d="M273.77,310.5a65.86,65.86,0,0,1-14.1-1.46,37.48,37.48,0,0,1-11.81-4.69,23.54,23.54,0,0,1-8.09-8.36,25,25,0,0,1-2.94-12.59q0-8.46,4.14-13.87a27.45,27.45,0,0,1,11.25-8.5,60.75,60.75,0,0,1,16-4.28,139.94,139.94,0,0,1,18.47-1.19c1.95,0,3.95.06,6,.18l5.69.37c1.78.12,3.28.19,4.51.19a4.79,4.79,0,0,0,3.21-.79,3.63,3.63,0,0,0,.83-2.71,21.08,21.08,0,0,0-.87-6.34,15.3,15.3,0,0,0-6.48-8.45,24.56,24.56,0,0,0-8.87-3.54,56.26,56.26,0,0,0-11.16-1.05A48.4,48.4,0,0,0,267,234.89q-5.47,1.47-9.7,3a22.5,22.5,0,0,1-7.72,1.56,14.51,14.51,0,0,1-7.39-1.56,5.43,5.43,0,0,1-2.62-5.06,9.13,9.13,0,0,1,3.08-6.61,27.1,27.1,0,0,1,8.45-5.33,57.77,57.77,0,0,1,12.5-3.58,85.17,85.17,0,0,1,15.2-1.29q16.26,0,27.25,4.09a31.26,31.26,0,0,1,16.49,13.23q5.51,9.15,5.51,24.58a59.81,59.81,0,0,1-.46,8,46.68,46.68,0,0,1-1.15,5.93c-.46,1.68-.84,3.14-1.14,4.36a14,14,0,0,0-.46,3.4,7,7,0,0,0,1.42,4.18,30,30,0,0,0,3.4,3.91,26.28,26.28,0,0,1,3.44,4.09,8.37,8.37,0,0,1,1.48,4.82c0,2.64-.86,4.53-2.58,5.7a9.93,9.93,0,0,1-5.7,1.74,6.41,6.41,0,0,1-4.73-1.88c-1.25-1.26-2.39-2.5-3.4-3.72a4.64,4.64,0,0,0-3.72-1.84,6.47,6.47,0,0,0-2.8.74,27.66,27.66,0,0,0-3.72,2.29q-2.76,2-7,4.55A47.07,47.07,0,0,1,290,308.62,60,60,0,0,1,273.77,310.5Zm2.48-14.05a34.43,34.43,0,0,0,11-1.79,33.64,33.64,0,0,0,9.56-5,25.1,25.1,0,0,0,6.71-7.39A18,18,0,0,0,306,273a5,5,0,0,0-2.11-4.51q-2.12-1.36-6.76-1.74t-12.35-.37a62.39,62.39,0,0,0-14.15,1.52A23.21,23.21,0,0,0,260.17,273a12.25,12.25,0,0,0-3.95,9.6,12.1,12.1,0,0,0,2.39,7.72,14.64,14.64,0,0,0,6.89,4.6A32.92,32.92,0,0,0,276.25,296.45Z"/><path class="cls-2" d="M390.83,303.52a35.25,35.25,0,0,1-10-1.47,18,18,0,0,1-8.59-5.56q-3.58-4.08-4.14-11.62-.27-2.67-.55-6.06c-.18-2.27-.35-4.7-.5-7.31s-.28-5.3-.37-8.09-.18-5.63-.28-8.54-.13-5.8-.13-8.68-.57-4.57-1.52-5.42a7,7,0,0,0-4.37-1.47c-1.16-.13-2.64-.23-4.45-.32s-3.66-.2-5.56-.33-3.58-.21-5-.27a8.61,8.61,0,0,1-5.42-2.44,8,8,0,0,1-1.84-5.65,6,6,0,0,1,1.05-3.81,6.8,6.8,0,0,1,3-2.07,18.42,18.42,0,0,1,4.45-1q4.88-.45,8-.83c2.12-.24,4.09-.45,5.93-.64a7.24,7.24,0,0,0,4.18-1.56c.83-.8,1.36-2.27,1.61-4.41.12-1.29.23-2.79.32-4.5s.21-3.42.37-5.1.32-3.14.5-4.37a15.07,15.07,0,0,1,2.85-6.61c1.23-1.41,3.18-2.12,5.88-2.12a10.69,10.69,0,0,1,5.19,1.06,6.37,6.37,0,0,1,2.8,3.26,24.69,24.69,0,0,1,1.47,5.79c.13,1.84.24,3.49.33,5s.16,2.8.23,4,.13,2.28.22,3.26.2,2,.33,2.94a5.24,5.24,0,0,0,1.74,3.81,8.27,8.27,0,0,0,4.32,1.43l5.47.6q3,.31,5.79.55a42.83,42.83,0,0,1,4.64.59,16.67,16.67,0,0,1,6.43,2,5.6,5.6,0,0,1,2.66,5.24,6.47,6.47,0,0,1-2.11,5.1A9.47,9.47,0,0,1,410,240c-3.73.06-7.2.08-10.38.05s-5.67,0-7.44.14a5,5,0,0,0-3.27,1.14c-.76.71-1.21,2.5-1.33,5.38q0,3.58.05,7.26c0,2.45.07,4.9.14,7.35s.15,4.84.27,7.16.28,4.54.46,6.62.4,4,.64,5.7c.49,3.61,1.4,6,2.71,7.26a7.48,7.48,0,0,0,5.29,1.83,10.45,10.45,0,0,0,6.2-1.61,27.63,27.63,0,0,0,3.86-3.26,5,5,0,0,1,3.63-1.65,4.15,4.15,0,0,1,3.35,1.24,5.44,5.44,0,0,1,1.06,3.63,9.05,9.05,0,0,1-2.16,5.74,21.44,21.44,0,0,1-5.7,4.87,31.75,31.75,0,0,1-7.85,3.4A31.37,31.37,0,0,1,390.83,303.52Z"/><path class="cls-2" d="M140.55,446a6,6,0,0,1-3.37-1,7.75,7.75,0,0,1-2.56-3.1,23.46,23.46,0,0,1-1.84-5.69q-.48-2.93-.88-6.3c-.28-2.25-.51-4.55-.72-6.89s-.38-4.71-.51-7.12-.24-4.78-.31-7.12-.1-4.6-.1-6.78a71.9,71.9,0,0,1,4.06-25.12A36.06,36.06,0,0,1,147,359.71q8.58-6.24,22.22-6.23a44.14,44.14,0,0,1,15.23,2.41,30.23,30.23,0,0,1,11,6.82,28.15,28.15,0,0,1,6.65,10.43,38.53,38.53,0,0,1,2.21,13.32,39.53,39.53,0,0,1-2.07,13.22,23.87,23.87,0,0,1-6.58,9.92A29.76,29.76,0,0,1,184,415.77a62.59,62.59,0,0,1-17.44,2.11,36.21,36.21,0,0,1-7.91-.72,35.16,35.16,0,0,1-5-1.43,8.74,8.74,0,0,0-2.73-.71,2.33,2.33,0,0,0-1.94.81,7.14,7.14,0,0,0-.85,3.55,35,35,0,0,0-.28,4c0,1.74-.1,3.63-.17,5.65s-.11,3.9-.13,5.63-.06,3-.11,4q-.27,4.15-2,5.76A6.94,6.94,0,0,1,140.55,446Zm23.51-40.35q9.62,0,15.2-2.45a15.71,15.71,0,0,0,8-7.12,24,24,0,0,0,2.42-11.15,26.5,26.5,0,0,0-1.7-9.5,14.76,14.76,0,0,0-6.07-7.26q-4.36-2.79-12.27-2.8a22.6,22.6,0,0,0-9.61,1.88,16.33,16.33,0,0,0-6.51,5.35,23.41,23.41,0,0,0-3.64,8.18,44,44,0,0,0-1.16,10.49,22.9,22.9,0,0,0,1.36,8.9,7.74,7.74,0,0,0,4.74,4.29A28.78,28.78,0,0,0,164.06,405.61Z"/><path class="cls-2" d="M237.06,417.61q-6.69,0-10.81-2.83T220,405.41a75.6,75.6,0,0,1-2.86-17.65c-.23-1.87-.4-4.17-.52-6.92s-.18-5.72-.2-8.9,0-6.33,0-9.47.11-6,.17-8.65.15-4.8.24-6.48a88.75,88.75,0,0,1,1-10.8,12.67,12.67,0,0,1,2.59-6.37,6.69,6.69,0,0,1,5.28-2.12q4.29,0,5.93,2.63t1.64,8.82c0,1.28-.05,3-.14,5.05s-.2,4.4-.34,6.95-.28,5.18-.44,7.9-.3,5.4-.41,8-.22,5-.31,7.3-.14,4.14-.14,5.69q0,8.1.52,13.18a33.22,33.22,0,0,0,1.53,7.84,8,8,0,0,0,2.49,3.82,5.62,5.62,0,0,0,3.37,1.05,8.75,8.75,0,0,0,4.33-1c1.16-.66,2.21-1.32,3.17-2a5.08,5.08,0,0,1,2.93-1,3.07,3.07,0,0,1,2.55,1.16,4.63,4.63,0,0,1,.92,3,7.35,7.35,0,0,1-1.36,4.19,13.14,13.14,0,0,1-3.65,3.54,20.54,20.54,0,0,1-11.27,3.38Z"/><path class="cls-2" d="M289.8,420.61a48.92,48.92,0,0,1-10.46-1.09,27.64,27.64,0,0,1-8.75-3.48,17.37,17.37,0,0,1-6-6.2,18.52,18.52,0,0,1-2.18-9.34,16.51,16.51,0,0,1,3.06-10.29,20.56,20.56,0,0,1,8.35-6.31,45,45,0,0,1,11.9-3.16,103,103,0,0,1,13.69-.89c1.46,0,2.93,0,4.43.14l4.23.27c1.32.09,2.43.14,3.34.14a3.59,3.59,0,0,0,2.38-.58,2.7,2.7,0,0,0,.62-2,15.68,15.68,0,0,0-.65-4.71,11.56,11.56,0,0,0-1.87-3.61,12,12,0,0,0-2.93-2.66,18.16,18.16,0,0,0-6.58-2.62,41.73,41.73,0,0,0-8.28-.78,35.76,35.76,0,0,0-9.3,1.09q-4.07,1.08-7.2,2.25a16.65,16.65,0,0,1-5.72,1.15,10.84,10.84,0,0,1-5.49-1.15,4.06,4.06,0,0,1-1.94-3.75,6.79,6.79,0,0,1,2.28-4.91,20.11,20.11,0,0,1,6.28-3.95,42.38,42.38,0,0,1,9.26-2.66,63,63,0,0,1,11.28-1q12.06,0,20.21,3A23.14,23.14,0,0,1,326,363.39q4.1,6.78,4.09,18.23a44.46,44.46,0,0,1-.34,5.93,35.19,35.19,0,0,1-.85,4.4c-.34,1.25-.63,2.33-.85,3.23a10.33,10.33,0,0,0-.34,2.53,5.24,5.24,0,0,0,1.05,3.1,23.45,23.45,0,0,0,2.52,2.89,20.13,20.13,0,0,1,2.56,3,6.17,6.17,0,0,1,1.09,3.57,4.74,4.74,0,0,1-1.91,4.23,7.37,7.37,0,0,1-4.22,1.29,4.76,4.76,0,0,1-3.51-1.39q-1.39-1.4-2.52-2.76a3.45,3.45,0,0,0-2.76-1.37,4.86,4.86,0,0,0-2.08.55,20.26,20.26,0,0,0-2.76,1.7c-1.37,1-3.1,2.13-5.22,3.38a34.42,34.42,0,0,1-8.07,3.27A44.71,44.71,0,0,1,289.8,420.61Zm1.84-10.43a25.63,25.63,0,0,0,8.18-1.33,25,25,0,0,0,7.09-3.68,18.74,18.74,0,0,0,5-5.49,13.4,13.4,0,0,0,1.84-6.88,3.69,3.69,0,0,0-1.57-3.34,11.24,11.24,0,0,0-5-1.3c-2.3-.18-5.35-.27-9.17-.27A46.22,46.22,0,0,0,287.49,389a17.24,17.24,0,0,0-7.77,3.75,10.12,10.12,0,0,0-1.16,12.84,10.76,10.76,0,0,0,5.11,3.41A24.46,24.46,0,0,0,291.64,410.18Z"/><path class="cls-2" d="M349.92,415.49a7.18,7.18,0,0,1-5.05-1.7,10.7,10.7,0,0,1-2.72-5.52c-.14-1.18-.23-2.52-.28-4s0-3.2,0-5.11.16-4,.34-6.27q.82-13.56,5.53-23a33.49,33.49,0,0,1,13.08-14.37q8.39-5,20-4.95t20,4.71A30.41,30.41,0,0,1,413.5,369.7q4.44,9.74,4.43,24.87c0,1.82,0,3.5-.1,5s-.17,3-.31,4.23a23.65,23.65,0,0,1-.61,3.48q-1,4.35-3,6.27a7.27,7.27,0,0,1-5.22,1.9,9.39,9.39,0,0,1-5-1.09,5.83,5.83,0,0,1-2.46-3.27,23.77,23.77,0,0,1-1-5.38c-.13-3.41-.26-6.42-.37-9s-.27-5-.48-7-.44-4-.71-5.8-.62-3.6-1-5.41q-1.56-7-5.24-10.57t-11-3.61q-7,0-11.28,3.92a25.27,25.27,0,0,0-6.57,10.67,47.37,47.37,0,0,0-1.71,6c-.45,2.09-.83,4.25-1.12,6.48s-.55,4.56-.75,7-.4,5-.58,7.7a13.2,13.2,0,0,1-1.64,5.86,6.63,6.63,0,0,1-3.27,2.79A12.82,12.82,0,0,1,349.92,415.49Z"/></svg>